#!OML:ASF F:\VICON\USERDATA\INSTALL\rory3\rory3.ASF
:FULLY-SPECIFIED
:DEGREES
378
root -0.136318 17.6674 8.73218 -181.239 -4.70433 177.305
lowerback 11.228 0.774746 -0.695708
upperback -0.256265 0.985058 1.57798
thorax -6.61937 0.507708 1.892
lowerneck -20.6761 -3.02819 -11.5462
upperneck 34.242 -5.09776 6.98471
head 16.1805 -3.45198 3.8235
rclavicle 1.83876e-015 -8.74653e-015
rhumerus -36.1126 -22.3857 -67.8956
rradius 32.8675
rwrist 8.79619
rhand -15.6241 11.4267
rfingers 7.12502
rthumb 10.5627 -18.2879
lclavicle 1.83876e-015 -8.74653e-015
lhumerus -33.4419 8.62244 83.8088
lradius 31.1814
lwrist -4.94601
lhand -20.3891 23.9804
lfingers 7.12502
lthumb 5.96417 53.8764
rfemur -1.41934 7.56925 0.683297
rtibia 27.0354
rfoot -7.38337 -15.0492
rtoes 14.8357
lfemur 0.108571 -6.10706 -14.4346
ltibia 17.1278
lfoot -13.7375 -11.3769
ltoes -14.2708
379
root -0.234446 17.6857 8.75309 -181.102 -4.55469 177.335
lowerback 11.2129 0.793667 -0.882138
upperback -0.309436 0.990158 1.59741
thorax -6.67131 0.518748 2.01705
lowerneck -20.5731 -2.97406 -11.483
upperneck 34.2371 -5.07486 7.00033
head 16.1477 -3.43861 3.82305
rclavicle 5.01931e-015 -2.46493e-014
rhumerus -36.1913 -22.0152 -68.2499
rradius 32.8259
rwrist 8.75393
rhand -15.0794 10.0419
rfingers 7.12502
rthumb 11.0882 -19.6452
lclavicle 5.01931e-015 -2.46493e-014
lhumerus -33.5649 7.85211 83.9843
lradius 31.4924
lwrist -4.50244
lhand -20.5651 23.9382
lfingers 7.12502
lthumb 5.79428 53.839
rfemur -2.18818 6.95607 0.908772
rtibia 27.8994
rfoot -7.72153 -16.2017
rtoes 19.7015
lfemur -0.0273265 -6.18656 -14.7977
ltibia 17.058
lfoot -13.551 -11.0482
ltoes -13.4693
380
root -0.329544 17.7023 8.77695 -180.927 -4.43744 177.314
lowerback 11.1956 0.83164 -1.06691
upperback -0.364614 1.01911 1.57476
thorax -6.72443 0.541308 2.09269
lowerneck -20.4812 -2.97527 -11.4778
upperneck 34.1413 -5.10618 7.0734
head 16.0844 -3.43743 3.84624
rclavicle -4.62174e-015 2.22639e-014
rhumerus -36.3316 -21.7343 -68.5671
rradius 32.9638
rwrist 9.0927
rhand -14.4036 8.82507
rfingers 7.12502
rthumb 11.7399 -20.8259
lclavicle -4.62174e-015 2.22639e-014
lhumerus -33.5539 7.15709 84.1218
lradius 31.6896
lwrist -4.28539
lhand -20.5863 24.092
lfingers 7.12502
lthumb 5.77377 53.9934
rfemur -3.02358 6.28454 1.11279
rtibia 28.8502
rfoot -8.36771 -16.9601
rtoes 23.2019
lfemur -0.225609 -6.24454 -15.1895
ltibia 17.0294
lfoot -13.4741 -10.8451
ltoes -11.8318
381
root -0.420524 17.7191 8.80157 -180.796 -4.37766 177.388
lowerback 11.2549 0.854966 -1.11904
upperback -0.376697 1.04227 1.55003
thorax -6.77242 0.554785 2.09169
lowerneck -20.5535 -3.03472 -11.6088
upperneck 34.0743 -5.21962 7.34044
head 16.0982 -3.45649 3.96454
rclavicle 1.2424e-015 2.14687e-014
rhumerus -36.3907 -21.738 -68.8514
rradius 33.0649
rwrist 9.74771
rhand -13.9258 8.59189
rfingers 7.12502
rthumb 12.2007 -21.0323
lclavicle 1.2424e-015 2.14687e-014
lhumerus -33.5254 6.4257 84.2131
lradius 32.0104
lwrist -4.07368
lhand -20.5381 24.0743
lfingers 7.12502
lthumb 5.82031 53.9744
rfemur -3.80745 5.59881 1.48505
rtibia 29.8689
rfoot -9.29658 -17.3579
rtoes 23.7818
lfemur -0.412405 -6.29093 -15.4502
ltibia 17.0113
lfoot -13.4893 -10.686
ltoes -11.117
382
root -0.509126 17.7337 8.82353 -180.674 -4.333 177.506
lowerback 11.2802 0.846167 -1.12225
upperback -0.377629 1.02844 1.52087
thorax -6.78654 0.547879 2.06487
lowerneck -20.4812 -3.07197 -11.5992
upperneck 33.9405 -5.3167 7.46512
head 16.0322 -3.4713 3.99568
rclavicle -7.7526e-015 -4.6118e-014
rhumerus -36.3987 -21.8444 -69.1613
rradius 33.0658
rwrist 10.4397
rhand -13.4072 8.79813
rfingers 7.12502
rthumb 12.7006 -20.7957
lclavicle -7.7526e-015 -4.6118e-014
lhumerus -33.5621 5.68801 84.2459
lradius 32.4122
lwrist -3.74724
lhand -20.4357 24.1148
lfingers 7.12502
lthumb 5.91913 54.0121
rfemur -4.5742 4.86098 1.95387
rtibia 30.9312
rfoot -10.2298 -17.4012
rtoes 21.6584
lfemur -0.56474 -6.28763 -15.6505
ltibia 16.948
lfoot -13.5255 -10.5406
ltoes -11.426
383
root -0.594927 17.7445 8.84536 -180.597 -4.25694 177.481
lowerback 11.3171 0.865387 -1.35591
upperback -0.335651 1.02199 1.53257
thorax -6.76731 0.552137 2.21038
lowerneck -20.4797 -3.09552 -11.6174
upperneck 33.8023 -5.28594 7.41654
head 15.9592 -3.4534 3.98107
rclavicle -1.82882e-014 -1.51076e-014
rhumerus -36.3147 -21.6483 -69.4978
rradius 33.0451
rwrist 10.8397
rhand -13.1121 8.96645
rfingers 7.12502
rthumb 12.9852 -20.6094
lclavicle -1.82882e-014 -1.51076e-014
lhumerus -33.5589 5.07395 84.4028
lradius 32.8103
lwrist -3.48699
lhand -20.5598 24.0882
lfingers 7.12502
lthumb 5.79936 53.9888
rfemur -5.30289 4.16321 2.30601
rtibia 32.0136
rfoot -11.3019 -17.0052
rtoes 19.7802
lfemur -0.684625 -6.29519 -16.0062
ltibia 16.8972
lfoot -13.3867 -10.4092
ltoes -11.511
384
root -0.679257 17.7527 8.86864 -180.582 -4.12746 177.429
lowerback 11.3985 0.927332 -1.60389
upperback -0.287553 1.06827 1.52044
thorax -6.76932 0.582231 2.32953
lowerneck -20.5501 -3.1113 -11.7229
upperneck 33.788 -5.29944 7.54757
head 15.9795 -3.45004 4.05536
rclavicle -2.37548e-014 1.43125e-014
rhumerus -36.2222 -21.4374 -69.8292
rradius 32.961
rwrist 11.0384
rhand -12.9377 9.20751
rfingers 7.12502
rthumb 13.1532 -20.3576
lclavicle -2.37548e-014 1.43125e-014
lhumerus -33.5852 4.42786 84.5323
lradius 33.2451
lwrist -3.24148
lhand -20.4911 24.3679
lfingers 7.12502
lthumb 5.86566 54.2667
rfemur -5.99928 3.55205 2.6464
rtibia 33.0988
rfoot -12.4313 -16.1018
rtoes 18.1649
lfemur -0.761413 -6.23288 -16.3859
ltibia 16.9247
lfoot -13.2764 -10.336
ltoes -11.4663
385
root -0.760457 17.7597 8.89118 -180.588 -3.98233 177.454
lowerback 11.5112 0.990354 -1.76425
upperback -0.273006 1.12751 1.50226
thorax -6.82386 0.61662 2.39007
lowerneck -20.6491 -3.11081 -11.836
upperneck 33.9416 -5.35692 7.74492
head 16.0977 -3.47309 4.15523
rclavicle -8.10048e-015 7.95139e-016
rhumerus -36.2124 -21.3146 -70.1421
rradius 32.8673
rwrist 11.2865
rhand -12.8596 9.82101
rfingers 7.12502
rthumb 13.2285 -19.7392
lclavicle -8.10048e-015 7.95139e-016
lhumerus -33.6999 3.88991 84.5176
lradius 33.6906
lwrist -3.06007
lhand -20.3543 24.5717
lfingers 7.12502
lthumb 5.99775 54.4668
rfemur -6.69238 2.87181 3.118
rtibia 34.1904
rfoot -13.3863 -14.7571
rtoes 15.9751
lfemur -0.779596 -6.22848 -16.6753
ltibia 17.0014
lfoot -13.4067 -10.0923
ltoes -11.1002
386
root -0.836355 17.7652 8.9166 -180.589 -3.93036 177.603
lowerback 11.7247 0.995652 -1.7814
upperback -0.291245 1.129 1.51113
thorax -6.96484 0.619185 2.40734
lowerneck -20.7383 -3.09312 -11.8474
upperneck 34.0315 -5.35444 7.8028
head 16.1655 -3.47031 4.18603
rclavicle 2.55438e-014 1.35174e-014
rhumerus -36.2409 -21.1602 -70.4972
rradius 32.8509
rwrist 11.5295
rhand -12.6518 10.2424
rfingers 7.12502
rthumb 13.4288 -19.3048
lclavicle 2.55438e-014 1.35174e-014
lhumerus -33.8417 3.24731 84.5179
lradius 34.0768
lwrist -2.71201
lhand -20.6465 24.3684
lfingers 7.12502
lthumb 5.71565 54.2713
rfemur -7.34465 2.21959 3.81018
rtibia 35.2593
rfoot -14.3746 -13.279
rtoes 13.7145
lfemur -0.889795 -6.16235 -16.7603
ltibia 17.1247
lfoot -13.5566 -10.1686
ltoes -10.333
387
root -0.91191 17.7671 8.94172 -180.571 -3.92422 177.669
lowerback 11.8531 0.980709 -1.84461
upperback -0.23302 1.09422 1.49659
thorax -6.97447 0.602269 2.43322
lowerneck -20.9768 -3.11436 -11.7545
upperneck 34.059 -5.32532 7.6872
head 16.2251 -3.44982 4.12597
rclavicle 1.89839e-014 1.51076e-014
rhumerus -36.1321 -21.0094 -70.9146
rradius 32.9256
rwrist 11.8284
rhand -12.3732 10.0337
rfingers 7.12502
rthumb 13.6973 -19.4955
lclavicle 1.89839e-014 1.51076e-014
lhumerus -33.7481 2.84363 84.4621
lradius 34.287
lwrist -2.51317
lhand -21.0387 24.2355
lfingers 7.12502
lthumb 5.33695 54.1483
rfemur -7.96683 1.58258 4.41842
rtibia 36.2829
rfoot -15.428 -11.6957
rtoes 10.9755
lfemur -1.10275 -6.07653 -16.9261
ltibia 17.3544
lfoot -13.6074 -10.3799
ltoes -9.01498
